<svg xmlns="http://www.w3.org/2000/svg" xmlns:xlink="http://www.w3.org/1999/xlink" fill="none" height="500" width="1500">
  <g clip-path="url(#clip0)">
    <rect fill="#1E1E1E" height="500" width="1500"/>
    <rect fill="#1E1E1E" height="500" width="1500"/>
    <rect fill="#DF2525" transform="rotate(-37 286 622)" height="759.9" width="1614.3" y="622" x="286"/>
    <circle fill="#fff" r="183" cy="225" cx="750"/>
    <path fill="#fff" d="M600 435l3 9v1a27 27 0 010 2h1a24 24 0 010-3l3-9h5v26h-4v-17a29 29 0 011-6h-1v2a30 30 0 01-1 3l-2 7h-3l-2-7a51 51 0 01-2-5 204 204 0 011 6v17h-5v-26h6zm16 20v-2l2-2 2-1 4-1h5v-2l-2-2-2-1-3 1-1 1h-5l1-2 2-2 3-1h6l3 2 1 2 1 2v14h-4v-4h-1c0 1 0 2-2 3l-4 1-4-1c-2-1-2-3-2-5zm4 0l1 2 3 1 3-1 2-3v-2h-5l-3 1-1 2zm23-20v14h3l5-8h5l-6 10 6 10h-5l-5-8h-3v8h-5v-26h5zm17 22h7v-12h-6v-4h11v16h5v4h-17v-4zm6-21l1-2 2-1 2 1 1 2-1 2h-4l-1-2zm15 5h5v4c0-2 1-3 2-3l3-1 5 2 2 5v13h-5v-12l-1-3-2-1-3 1-1 3v12h-5v-20zm22 8v-4l1-2 3-2h2l4 1 2 3v-4h4v22l-2 2-2 2h-9v-4h5l3-1 1-2v-4l-2 3-4 1-2-1-3-1-1-3v-6zm4 3l1 3 3 1 3-1 1-3v-3l-1-3-3-1-3 1-1 3v3zm38 3l1-2 1-2 3-1 3-1h5v-2l-1-2-3-1-2 1-2 1h-4l1-2 2-2 2-1h7l2 2 2 2 1 2v14h-5v-4l-2 3-4 1-5-1-2-5zm5 0l1 2 2 1 4-1 1-3v-2h-5l-2 1-1 2zm16-14h4l1 13a22 22 0 010 3v2h1v-2a221 221 0 000-3l2-13h4l2 13a21 21 0 010 3v2h1a44 44 0 010-5l1-13h4l-3 20h-5l-2-13a16 16 0 010-2v-2a35 35 0 010 4l-2 13h-6l-2-20zm23 8l1-4 1-2 3-2h7a7 7 0 015 8v3h-13v2l1 3 4 1 2-1 2-1h4a6 6 0 01-3 4 10 10 0 01-5 1h-4l-3-2-1-2-1-3v-5zm9-5l-4 2-1 3h9l-1-3-3-2zm12 12h5l1 1 2 1h2l2-1 1-2c0-1-1-2-3-2h-3l-5-2-1-4 2-5 5-1h2l5 1 3 4h-5l-1-1-2-1h-2l-2 1-1 2c0 1 1 2 3 2h3l5 2 2 4-2 5-6 1h-2l-5-1-3-4zm31 5h-4l-3-2-1-2-1-3v-5l1-4 1-2 3-2h7a7 7 0 015 4v12a7 7 0 01-5 4h-3zm-4-7l1 2 3 1 3-1 1-2v-5l-1-3-3-1-3 1-1 3v5zm20-13v3l1-2 3-1 2 1 1 2 1-2 2-1 3 1 1 4v15h-4v-15l-1-2-2 2v15h-3v-15l-2-2-2 2v15h-4v-20h4zm18 8l1-4 2-2 2-2h7a7 7 0 015 8v3h-12v2l1 3 3 1 2-1 2-1h4a6 6 0 01-3 4 10 10 0 01-5 1h-4l-2-2-2-2-1-3v-5zm9-5l-3 2-1 3h8l-1-3-3-2zm39-3v-6h5v6h7v4h-7v11l2 1h5v4h-5l-5-2-2-4v-10h-5v-4h5zm17-6h5v6a20 20 0 010 4c0-2 1-3 2-3l3-1c2 0 4 0 5 2l2 5v13h-5v-12l-1-3-2-1-3 1-1 3v12h-5v-26zm22 22h8v-12h-7v-4h11v16h6v4h-18v-4zm6-21l1-2 2-1h1l2 1v4h-5l-1-2zm16 5h4v4c0-2 1-3 2-3l3-1 5 2 2 5v13h-5v-12l-1-3-2-1-3 1-1 3v12h-4v-20zm21 8v-4l2-2 2-2h3l3 1 2 3v-4h5v19l-1 3-2 2-2 2h-9v-4h5l3-1 1-2v-4l-2 3-3 1-3-1-2-1-2-3v-6zm4 3l1 3 3 1 3-1 1-3v-3l-1-3-3-1-3 1-1 3v3zm17 4h5l1 1 2 1h2l2-1 1-2c0-1-1-2-3-2h-3l-5-2-1-4c0-2 0-4 2-5l5-1h2l5 1 2 4h-4l-1-1-2-1h-2l-2 1-1 2c0 1 1 2 3 2h3l5 2 2 4-2 5-6 1h-2l-5-1-3-4zm43-9v-4h6v-2-3l1-1 2-2h9v4h-6l-1 1-1 1v2h8v4h-8v14h-4v-14h-6zm31 14h-4l-2-2-2-2-1-3v-5l1-4 2-2 2-2h7a7 7 0 015 4v12l-2 2-3 2h-3zm-4-7l1 2 3 1 3-1 1-2v-5l-1-3-3-1-3 1-1 3v5zm22-13v4h1l1-3 4-1 5 2 2 5v2h-5v-1l-1-3-3-1-3 1-1 3v12h-4v-20h4zm37 14l1-2 2-2 2-1 3-1h5v-2l-1-2-3-1-2 1-2 1h-4a6 6 0 013-4l2-1h7l2 2 2 2 1 2v14h-5v-4l-2 3-4 1-5-1-2-5zm5 0l1 2 2 1 4-1 1-3v-2h-5l-2 1-1 2zm16-14h4l1 13v1a34 34 0 011 4v-2a213 213 0 001-3l1-13h4l2 13v5h1a53 53 0 010-4v-1l2-13h3l-2 20h-6l-1-13-1-1v-1-2 4l-2 13h-5l-3-20zm23 8l1-4a7 7 0 014-4h7a7 7 0 015 4v7h-13v2l2 3 3 1 2-1 2-1h4a7 7 0 01-3 4 10 10 0 01-5 1h-4l-3-2-1-2-1-3v-5zm9-5c-2 0-3 1-3 2-1 0-2 1-2 3h9l-1-3-3-2zm13 12h4l1 1 3 1h1l3-1v-2c0-1-1-2-3-2h-2l-5-2-2-4 2-5 6-1h1l5 1 3 4h-5l-1-1-2-1h-1l-3 1-1 2c0 1 1 2 3 2h3l5 2 2 4-2 5-6 1h-1l-6-1-2-4zm30 5h-4l-2-2-2-2-1-3v-5l1-4 2-2 2-2h7a7 7 0 015 4v12a7 7 0 01-5 4h-3zm-4-7l1 2 3 1 3-1 1-2v-5l-1-3-3-1-3 1-1 3v5zm20-13v3l1-2 3-1 2 1 1 2 1-2 2-1 3 1 2 4v15h-4v-15l-2-2-2 2v15h-3v-15l-2-2-2 2v15h-4v-20h4zm18 8l1-4 2-2 2-2h8a7 7 0 014 4l1 4v3h-13v2l1 3 3 1 3-1 1-1h4l-1 2-1 2a10 10 0 01-6 1h-3l-3-2-2-2-1-3v-5zm9-5l-3 2-1 3h8l-1-3-3-2zm35-3h4v4h1l1-3 4-1h3l2 2 1 2 1 4v5l-1 3-1 2-2 2h-3l-4-1-1-2h-1v1a18 18 0 011 2v6h-5v-26zm5 8v5l1 2 2 1 3-1 1-3v-4l-1-3-3-1-2 1-1 3zm16 0l1-4a7 7 0 014-4h7a7 7 0 015 4v7h-12v2l1 3 3 1 2-1 2-1h4a7 7 0 01-3 4 10 10 0 01-5 1h-4l-2-2-2-2-1-3v-5zm9-5l-3 2-1 3h8l-1-3-3-2zm21 17h-3l-3-2-2-2v-8-4l2-2 3-2h7l3 2 1 2 1 4v5l-1 3a7 7 0 01-4 4h-4zm-4-7l1 2 3 1 3-1 1-2v-5l-1-3-3-1-3 1-1 3v5zm18-13h4v4l2-3 4-1h3l2 2 1 2 1 4v5l-1 3-1 2-2 2h-3l-4-1-2-2a11 11 0 010 2v7h-4v-26zm4 8v5l1 2 3 1 3-1 1-3v-4l-1-3-3-1-3 1-1 3zm16-10v-4h11v21l2 1h6v4h-9a6 6 0 01-3-4l-1-3v-15h-6zm23 10v-4l2-2 3-2h7a7 7 0 014 4l1 4v3h-13v2l1 3 3 1 3-1 1-1h5l-2 2-1 2a10 10 0 01-6 1h-3l-3-2-2-2v-8zm8-5l-3 2-1 3h8l-1-3-3-2zm19-9h5v5l-1 13h-3l-1-13v-5zm0 24v-2l2-1h1l2 1 1 2-1 2h-5v-2z"/>
    
    
    <path d="M1167.88 200H1161.3V166.4H1167.88V179.936H1175.56V166.4H1182.14V200H1175.56V186.08H1167.88V200ZM1201.06 200L1200.05 194.672H1192.47L1191.46 200H1184.93L1191.41 166.4H1201.35L1207.49 200H1201.06ZM1196.17 172.64L1194.29 183.824L1193.24 189.536H1199.24L1198.13 183.824L1196.26 172.64H1196.17ZM1222.53 184.64H1222.34H1222.53L1225.07 174.128L1227.14 166.4H1233.14L1235.3 200H1229.01L1228.1 181.664H1227.86L1224.4 195.2H1220.46L1217.01 181.664H1216.77L1215.86 200H1209.57L1211.73 166.4H1217.73L1219.79 174.128L1222.34 184.64H1222.53ZM1239.16 200V166.4H1256.4V172.16H1245.74V180.176H1255.24V185.744H1245.74V194.432H1256.59V200H1239.16ZM1266.83 194.432H1271.15C1272.05 193.312 1272.75 191.68 1273.26 189.536C1273.81 187.392 1274.08 185.264 1274.08 183.152C1274.08 178.128 1273.14 174.464 1271.25 172.16H1266.83V194.432ZM1260.3 200V166.4H1274.22C1278.77 170.432 1281.04 175.904 1281.04 182.816C1281.04 189.696 1278.91 195.424 1274.66 200H1260.3Z" fill="white"/>
   <path d="M1160.95 243.4C1163.19 245.224 1164.86 247.672 1165.94 250.744C1167.03 253.816 1167.58 256.984 1167.58 260.248C1167.58 263.48 1167.05 266.552 1165.99 269.464C1164.94 272.376 1163.26 274.888 1160.95 277H1151.06C1148.76 274.888 1147.08 272.376 1146.02 269.464C1144.97 266.552 1144.44 263.48 1144.44 260.248C1144.44 256.984 1144.98 253.816 1146.07 250.744C1147.16 247.672 1148.82 245.224 1151.06 243.4H1160.95ZM1154.28 271.432H1157.74C1158.54 270.504 1159.21 269 1159.75 266.92C1160.33 264.808 1160.62 262.584 1160.62 260.248C1160.62 257.912 1160.34 255.72 1159.8 253.672C1159.26 251.592 1158.58 250.088 1157.78 249.16H1154.28C1153.48 250.088 1152.79 251.592 1152.22 253.672C1151.67 255.72 1151.4 257.912 1151.4 260.248C1151.4 262.584 1151.67 264.808 1152.22 266.92C1152.79 269 1153.48 270.504 1154.28 271.432ZM1173.69 243.4H1185.21V249.16H1175.99L1175.85 249.448L1183.53 263.464C1185.1 266.28 1185.88 268.424 1185.88 269.896C1185.88 273.128 1184.81 275.496 1182.66 277H1169.94V271.432H1179.88L1180.02 271.144L1171.38 255.64C1170.14 253.4 1169.51 251.576 1169.51 250.168C1169.51 246.84 1170.9 244.584 1173.69 243.4ZM1194.65 249.16H1187.4V243.4H1208.43V249.16H1201.18V277H1194.65V249.16ZM1225.17 243.4C1227.41 245.224 1229.07 247.672 1230.16 250.744C1231.25 253.816 1231.79 256.984 1231.79 260.248C1231.79 263.48 1231.27 266.552 1230.21 269.464C1229.15 272.376 1227.47 274.888 1225.17 277H1215.28C1212.98 274.888 1211.3 272.376 1210.24 269.464C1209.19 266.552 1208.66 263.48 1208.66 260.248C1208.66 256.984 1209.2 253.816 1210.29 250.744C1211.38 247.672 1213.04 245.224 1215.28 243.4H1225.17ZM1218.5 271.432H1221.95C1222.75 270.504 1223.43 269 1223.97 266.92C1224.55 264.808 1224.83 262.584 1224.83 260.248C1224.83 257.912 1224.56 255.72 1224.02 253.672C1223.47 251.592 1222.8 250.088 1222 249.16H1218.5C1217.7 250.088 1217.01 251.592 1216.43 253.672C1215.89 255.72 1215.62 257.912 1215.62 260.248C1215.62 262.584 1215.89 264.808 1216.43 266.92C1217.01 269 1217.7 270.504 1218.5 271.432ZM1255.66 243.4L1248.85 277H1239.82L1233.01 243.4H1239.92L1242.56 258.952L1244.19 269.032H1244.48L1246.11 258.952L1248.75 243.4H1255.66ZM1270.61 277L1269.6 271.672H1262.02L1261.01 277H1254.48L1260.96 243.4H1270.9L1277.04 277H1270.61ZM1265.71 249.64L1263.84 260.824L1262.78 266.536H1268.78L1267.68 260.824L1265.81 249.64H1265.71ZM1279.84 243.4H1292.6C1294.62 244.072 1296.33 245.32 1297.74 247.144C1299.18 248.936 1299.9 251.144 1299.9 253.768C1299.9 258.056 1298.2 261.208 1294.81 263.224L1299.66 277H1292.94L1288.86 264.76H1286.32V277H1279.84V243.4ZM1286.32 249.16V259.384H1290.44C1290.99 259.256 1291.58 258.712 1292.22 257.752C1292.89 256.76 1293.23 255.608 1293.23 254.296C1293.23 252.984 1292.94 251.832 1292.36 250.84C1291.82 249.848 1291.28 249.288 1290.73 249.16H1286.32Z" fill="white"/>
    
    <path d="M132.527 280.929L102.848 247.37L120.347 231.894L125.434 237.647L114.504 247.314L121.923 255.704L131.416 247.309L136.334 252.87L126.842 261.265L139.095 275.12L132.527 280.929ZM152.139 263.584L130.473 239.086L135.028 235.058L138.516 236.587C138.268 233.731 139.119 231.44 141.069 229.716L142.938 228.062L148.62 234.487L142.531 239.871L158.515 257.945L152.139 263.584ZM181.038 238.026L170.587 247.269C164.762 247.123 159.575 244.477 155.024 239.332C152.734 236.743 151.093 234.179 150.1 231.639C149.14 229.071 148.651 226.2 148.634 223.025L159.852 213.104C163.21 213.552 165.998 214.418 168.217 215.703C170.407 216.956 172.689 218.924 175.063 221.609C179.614 226.755 181.606 232.227 181.038 238.026ZM169.539 239.225L173.183 236.003C172.355 232.748 170.683 229.698 168.167 226.854C165.652 224.009 163.053 222.263 160.373 221.615L156.777 224.794C157.068 227.442 158.542 230.268 161.199 233.272C163.828 236.245 166.608 238.229 169.539 239.225ZM178.242 196.841L183.324 192.346C186.313 192.893 188.855 193.834 190.949 195.172C193.043 196.51 195.277 198.521 197.652 201.205L208.633 213.622L202.257 219.261L190.851 206.365C188.166 203.329 185.815 201.507 183.796 200.899L178.427 205.648L195.641 225.112L189.264 230.751L167.599 206.253L172.585 201.844L174.974 202.806C175.112 201.545 175.371 200.518 175.753 199.726C176.166 198.905 176.995 197.943 178.242 196.841ZM203.814 198.831L196.055 190.058L192.747 192.984L188.295 187.95L191.603 185.024L185.71 178.36L192.086 172.721L197.98 179.385L201.911 175.909L206.363 180.942L202.431 184.419L211.547 194.726C213.271 196.676 214.822 197.754 216.2 197.959L219.124 195.373L223.576 200.407L216.769 206.427C213.69 206.359 211.169 205.57 209.206 204.059C207.562 202.779 205.764 201.037 203.814 198.831ZM234.683 190.584L205.005 157.025L222.216 141.804L227.303 147.557L216.66 156.969L223.741 164.975L233.233 156.581L238.151 162.142L228.659 170.537L236.333 179.214L247.168 169.632L252.086 175.193L234.683 190.584ZM244.536 138.212L249.618 133.718C252.607 134.264 255.149 135.206 257.243 136.543C259.337 137.881 261.571 139.892 263.946 142.577L274.927 154.993L268.551 160.632L257.145 147.736C254.46 144.7 252.109 142.878 250.09 142.27L244.721 147.019L261.935 166.483L255.558 172.122L233.893 147.624L238.879 143.215L241.268 144.178C241.406 142.916 241.665 141.89 242.047 141.097C242.46 140.276 243.289 139.314 244.536 138.212ZM297.427 135.095L292.585 139.377L290.196 138.414C290.058 139.675 289.782 140.716 289.369 141.537C288.988 142.33 288.174 143.278 286.928 144.38L282.757 148.069C280.164 147.97 277.49 147.201 274.737 145.763C272.016 144.296 269.469 142.22 267.094 139.536C264.692 136.819 263.056 134.165 262.187 131.572C261.351 128.952 261.033 126.242 261.235 123.443L265.358 119.797C267.052 118.299 268.79 117.559 270.573 117.578L261.372 107.175L267.748 101.536L297.427 135.095ZM273.837 121.269L269.235 125.34C269.833 128.399 271.432 131.399 274.033 134.339C276.605 137.248 279.244 139.072 281.949 139.812L286.599 135.7L273.837 121.269ZM186.136 342.418L190.451 338.603C190.357 336.692 189.618 334.441 188.236 331.847C186.885 329.225 185.277 326.859 183.412 324.75C178.974 319.732 174.795 316.906 170.874 316.273L166.464 320.174L186.136 342.418ZM184.535 353.746L154.856 320.187L168.759 307.891C176.859 307.905 183.961 311.363 190.067 318.267C196.144 325.138 199.078 332.739 198.869 341.069L184.535 353.746ZM202.594 303.086L198.999 306.266C199.028 307.265 199.335 308.418 199.92 309.723C200.537 311 201.27 312.118 202.117 313.077L208.973 307.014C208.189 305.999 207.185 305.121 205.961 304.381C204.709 303.609 203.586 303.177 202.594 303.086ZM221.876 311.751L226.328 316.784L214.151 327.554C210.585 328.03 207.364 327.575 204.487 326.19C201.613 324.744 199.173 322.886 197.166 320.617C192.531 315.376 190.922 309.564 192.342 303.183L200.108 296.314C203.635 295.986 206.559 296.362 208.88 297.442C211.202 298.521 213.154 299.956 214.737 301.746C216.32 303.536 217.533 305.197 218.376 306.73L206.439 317.287C207.185 317.937 208.205 318.544 209.501 319.107C210.8 319.61 211.905 319.829 212.815 319.764L221.876 311.751ZM243.981 301.173L235.112 309.016C232.476 309.127 229.805 308.555 227.101 307.301C224.398 306.046 221.943 304.173 219.739 301.68L208.461 288.928L214.837 283.289L225.945 295.849C228.433 298.662 230.995 300.497 233.633 301.354L236.557 298.767C235.944 295.949 234.45 293.197 232.076 290.513L220.925 277.904L227.302 272.265L238.368 284.778C240.601 287.303 242.202 290.016 243.173 292.916C244.144 295.817 244.413 298.569 243.981 301.173ZM246.556 264.207L242.961 267.387C242.99 268.387 243.297 269.539 243.882 270.844C244.499 272.121 245.231 273.239 246.079 274.198L252.935 268.135C252.151 267.12 251.147 266.242 249.923 265.502C248.67 264.73 247.548 264.299 246.556 264.207ZM265.838 272.872L270.29 277.905L258.113 288.675C254.547 289.151 251.326 288.696 248.449 287.311C245.575 285.865 243.135 284.008 241.128 281.738C236.493 276.497 234.884 270.685 236.304 264.304L244.07 257.435C247.597 257.108 250.521 257.483 252.842 258.563C255.164 259.642 257.116 261.077 258.699 262.867C260.282 264.657 261.495 266.318 262.338 267.851L250.4 278.408C251.146 279.058 252.167 279.665 253.463 280.228C254.762 280.731 255.867 280.95 256.777 280.885L265.838 272.872ZM251.115 235.057L280.794 268.616L274.466 274.213L244.787 240.654L251.115 235.057ZM299.481 252.09L289.029 261.333C283.205 261.187 278.017 258.541 273.466 253.396C271.176 250.807 269.535 248.243 268.543 245.703C267.582 243.135 267.093 240.264 267.076 237.089L278.294 227.168C281.652 227.616 284.44 228.482 286.659 229.767C288.849 231.02 291.131 232.989 293.506 235.673C298.056 240.819 300.048 246.291 299.481 252.09ZM287.981 253.289L291.625 250.067C290.797 246.812 289.125 243.762 286.609 240.918C284.094 238.073 281.496 236.327 278.815 235.679L275.219 238.859C275.51 241.506 276.984 244.332 279.641 247.336C282.27 250.309 285.05 252.293 287.981 253.289ZM286.041 220.317L291.171 215.781L293.416 216.87C293.554 215.609 293.814 214.583 294.195 213.79C294.608 212.969 295.438 212.007 296.684 210.905L300.999 207.089C303.5 207.212 306.053 207.973 308.657 209.372C311.262 210.772 313.666 212.718 315.871 215.21C320.591 220.548 322.696 226.148 322.185 232.011L318.11 235.615C316.416 237.113 314.678 237.853 312.896 237.834L320.443 246.368L314.066 252.006L286.041 220.317ZM309.631 234.142L314.233 230.072C313.635 227.013 312.064 224.045 309.52 221.168C306.976 218.292 304.277 216.464 301.424 215.684L296.869 219.712L309.631 234.142ZM324.274 195.476L320.678 198.656C320.708 199.655 321.015 200.807 321.6 202.113C322.217 203.39 322.949 204.508 323.797 205.467L330.653 199.404C329.869 198.388 328.865 197.511 327.64 196.771C326.388 195.998 325.266 195.567 324.274 195.476ZM343.556 204.14L348.008 209.174L335.831 219.943C332.265 220.419 329.043 219.965 326.166 218.579C323.293 217.133 320.853 215.276 318.846 213.007C314.21 207.765 312.602 201.954 314.021 195.572L321.788 188.704C325.314 188.376 328.238 188.752 330.56 189.831C332.882 190.911 334.834 192.345 336.417 194.135C338 195.925 339.213 197.586 340.055 199.119L328.118 209.676C328.864 210.327 329.885 210.933 331.18 211.496C332.479 211.999 333.584 212.218 334.495 212.153L343.556 204.14ZM352.232 205.438L330.566 180.94L335.12 176.913L338.608 178.441C338.361 175.585 339.211 173.295 341.161 171.57L343.031 169.917L348.712 176.341L342.624 181.726L358.608 199.8L352.232 205.438Z" fill="white"/>
	
	
    <g transform="translate(549 -975) scale(1.34105)">
      <path class="bear__fur" d="M243 894c0 61-36 106-94 106-55 0-92-45-92-106s38-86 91-86 95 25 95 86z"/>
      <path class="bear__muzzle" d="M212 958c0 20-29 39-63 39-35 0-61-19-61-39s26-33 61-33 63 13 63 33z"/>
      <path class="bear__nose" d="M181 932c0 7-19 24-30 24s-32-17-32-24c0-8 20-13 31-13 12 0 31 5 31 13z"/>
      <ellipse class="bear__outer-ear" cx="68.3" cy="827.7" rx="23.8" ry="23.1"/>
      <path class="bear__inner-ear" d="M85 826a17 16 0 00-17-14 17 16 0 00-16 16 17 16 0 0016 16 17 16 0 001 0l3-4a66 66 0 0111-12z"/>
      <ellipse class="bear__outer-ear" ry="23.1" rx="23.8" cy="827.7" cx="-231.2" transform="scale(-1 1)"/>
      <path class="bear__inner-ear" d="M215 826a17 16 0 0116-14 17 16 0 0117 16 17 16 0 01-17 16 17 16 0 01-1 0l-2-4a66 66 0 00-11-12z"/>
      <path class="bear__cap-strap" d="M148 815c-14 0-26 1-38 4v11a199 199 0 0180 1v-11c-13-3-27-5-42-5z"/>
      <path class="bear__small-cap-strap" d="M165 816a16 8 0 015 5 16 8 0 01-6 6l26 4v-11z"/>
      <path class="bear__cap" d="M148 789c-43 0-76 20-83 64 12-11 28-19 45-23 0 0-2-12 10-16 15-4 19-4 28-4 10 0 15 0 30 4s12 17 12 17c18 5 32 11 45 22-8-46-43-64-87-64z"/>
      <circle class="bear__eye" cx="97.2" cy="894.1" r="11.2"/>
      <circle class="bear__eye" cy="894.1" cx="201.9" r="11.2"/>
      <path style="fill:none;stroke:#e9afaf;stroke-width:3;stroke-linecap:round;stroke-linejoin:round" class="bear__eyebrows" d="M97 864a21 21 0 01-7 16 21 21 0 01-16 5m130-21a21 21 0 006 16 21 21 0 0016 5"/>
      <path class="shades-frame" d="M77 855c-6 0-13 0-23 2l-14 3 2 15 7 2c3 5 1 10 2 18 3 28 12 34 26 35 8 1 23 3 33-1s19-10 25-18c6-9 6-18 10-26 3-5 8-4 10 0 3 8 4 17 10 26 6 8 15 14 24 18 11 4 26 2 34 1 14-1 23-7 26-35 1-8-2-13 2-18l7-2 2-15-15-3c-15-3-23-2-34-2h-13l-25 4c-8 2-15 7-23 6-8 0-15-5-23-6l-25-4z"/>
      <path style="fill:#333333" class="lens" d="M85 860c-10 1-25 1-28 13-3 15-3 32 6 45 7 11 23 9 35 9 19-1 35-16 40-34 2-8 4-14 1-19-6-10-20-12-31-13z"/>
      <path class="shades-dot" d="M56 864a4 2 0 01-4 2 4 2 0 01-4-2 4 2 0 014-1 4 2 0 014 1"/>
      <path style="fill:#333333" class="lens" d="M215 860c10 1 24 1 28 13 3 15 3 32-6 45-7 11-23 9-35 9-19-1-35-16-40-34-2-8-4-14-1-19 6-10 20-12 31-13z"/>
      <path class="shades-dot" d="M244 864a4 2 0 004 2 4 2 0 004-2 4 2 0 00-4-1 4 2 0 00-4 1"/>
      <g clip-path="url(#spec-left)">
        <use height="100%" width="100%" xlink:href="#code-block"/>
        <use height="100%" width="100%" xlink:href="#code-block" y="284"/>
      </g>
      <g clip-path="url(#spec-right)">
        <use height="100%" width="100%" xlink:href="#code-block" transform="translate(104)"/>
        <use height="100%" width="100%" xlink:href="#code-block" transform="translate(104)" y="284"/>
      </g>
      <path class="lens__shine" d="M101 861l-19 66h17l18-65zm-12-1h-4l-3 1-18 59 6 5z"/>
    </g>
  </g>
  <defs id="defs48">
    <clipPath id="clip0">
      <rect id="rect41" fill="#fff" height="500" width="1500"/>
    </clipPath>
    <clipPath id="clip1">
      <rect id="rect44" transform="translate(1261 188)" fill="#fff" height="50" width="50"/>
    </clipPath>
    <clipPath id="spec-left">
      <path d="M85 860c-10 1-25 1-28 13-3 15-3 32 6 45 7 11 23 9 35 9 19-1 35-16 40-34 2-8 4-14 1-19-6-10-20-12-31-13l-23-1z" fill="#333" id="path5554"/>
    </clipPath>
    <clipPath id="spec-right">
      <path d="M215 860c10 1 24 1 28 13 3 15 3 32-6 45-7 11-23 9-35 9-19-1-35-16-40-34-2-8-4-14-1-19 6-10 20-12 31-13l23-1z" fill="#333" id="path5557"/>
    </clipPath>
    <pattern height="1" width="1" patternContentUnits="objectBoundingBox" id="pattern0">
      <use id="use38" transform="scale(.005)" xlink:href="#image0"/>
    </pattern>
    <style type="text/css" id="style5503">
      svg { --fur: #662900; --ear: #e4b89b; --cap-strap--large: #f00; --cap-strap--small: #900; --cap: #0d0d0d; --dots: rgba(242,242,242,0.6); --frame: #000; --shine: rgba(242,242,242,0.35); --lens: #595959; --code-one: rgba(128,230,25,0.5); --code-two: rgba(229,230,25,0.5); --code-three: rgba(230,25,128,0.5); --code-four: rgba(25,195,230,0.5); } .code-block { -webkit-animation: read 1s infinite linear; animation: read 1s infinite linear; } .code-block rect { fill: var(--code-one); } .code-block rect:nth-of-type(5) { fill: var(--code-four); } .code-block rect:nth-of-type(8), .code-block rect:nth-of-type(9) { fill: var(--code-two); } .code-block rect:nth-of-type(12) { fill: var(--code-three); } .bear__fur, .bear__outer-ear { fill: var(--fur); } .bear__inner-ear, .bear__muzzle { fill: var(--ear); } .bear__cap-strap { fill: var(--cap-strap--large); } .bear__small-cap-strap { fill: var(--cap-strap--small); } .bear__cap { fill: var(--cap); } .lens { fill: var(--lens); } .lens__shine { fill: var(--shine); } .shades-dot { fill: var(--dots); } .bear__nose, .shades-frame { fill: var(--frame); } @-webkit-keyframes read { to { -webkit-transform: translate(0, -283.5px); transform: translate(0, -283.5px); } } @keyframes read { to { -webkit-transform: translate(0, -283.5px); transform: translate(0, -283.5px); } }
    </style>
    <g class="code-block" id="code-block">
      <rect ry="0" y="862" x="60" height="7.5" width="74" id="rect5505"/>
      <rect ry="0" y="874" x="96" height="7.5" width="28" id="rect5507"/>
      <rect width="54" height="7.5" x="60" y="886" ry="0" id="rect5509"/>
      <rect ry="0" y="897" x="60" height="7.5" width="74" id="rect5511"/>
      <rect width="56" height="7.5" x="78" y="909" ry="0" id="rect5513"/>
      <rect ry="0" y="921" x="83" height="7.5" width="51" id="rect5515"/>
      <rect width="51" height="7.5" x="73" y="932" ry="0" id="rect5517"/>
      <rect ry="0" y="944" x="72" height="7.5" width="62" id="rect5519"/>
      <rect width="74" height="7.5" x="60" y="956" ry="0" id="rect5521"/>
      <rect ry="0" y="967" x="50" height="7.5" width="84" id="rect5523"/>
      <rect width="64" height="7.5" x="60" y="979" ry="0" id="rect5525"/>
      <rect ry="0" y="991" x="60" height="7.5" width="74" id="rect5527"/>
      <rect width="41" height="7.5" x="93" y="1003" ry="0" id="rect5529"/>
      <rect ry="0" y="1014" x="66" height="7.5" width="58" id="rect5531"/>
      <rect width="58" height="7.5" x="56" y="1026" ry="0" id="rect5533"/>
      <rect ry="0" y="1038" x="50" height="7.5" width="74" id="rect5535"/>
      <rect width="46" height="7.5" x="88" y="1049" ry="0" id="rect5537"/>
      <rect ry="0" y="1061" x="105" height="7.5" width="19" id="rect5539"/>
      <rect width="38" height="7.5" x="96" y="1073" ry="0" id="rect5541"/>
      <rect ry="0" y="1084" x="73" height="7.5" width="51" id="rect5543"/>
      <rect ry="0" y="1096" x="88" height="7.5" width="26" id="rect5545"/>
      <rect width="56" height="7.5" x="68" y="1108" ry="0" id="rect5547"/>
      <rect ry="0" y="1120" x="100" height="7.5" width="24" id="rect5549"/>
      <rect width="74" height="7.5" x="50" y="1131" ry="0" id="rect5551"/>
    </g>
  </defs>
</svg>
